<svg width="64" height="80" viewBox="0 0 64 80" fill="none" xmlns="http://www.w3.org/2000/svg">
<path d="M39.0304 12.8028L39.0305 12.8032C39.5856 14.4559 40.2215 15.8091 40.8976 16.8227C41.578 17.8427 42.2734 18.4804 42.9318 18.7651L43.7684 19.1268L44.1633 19.2975L44.0533 19.7135L42.9302 23.9621C42.5415 25.4419 41.6686 26.7467 40.4518 27.6646C39.2352 28.5824 37.7464 29.0593 36.2267 29.0172C34.9081 28.9846 33.5907 29.1075 32.3012 29.3831V33.4618V33.9618H31.8012H29.6976H29.1976V33.4618V27.3464V26.9653L29.565 26.8643L30.3402 26.6511C32.3681 26.0932 34.3794 25.8379 36.3181 25.8966C37.1367 25.9213 37.9398 25.665 38.5961 25.1689C39.2524 24.6727 39.7231 23.9658 39.9301 23.1634L39.9309 23.1605L40.5168 20.9441C39.4424 20.154 38.5698 19.0284 37.8676 17.8263C37.099 16.5103 36.5164 15.0709 36.0906 13.803C36.0255 13.6112 35.9028 13.4455 35.7405 13.3287C35.578 13.2119 35.3839 13.1497 35.1854 13.1503L35.1839 13.1503L30.2235 13.1503H29.7235V12.6503V5.27483C26.8034 6.59786 25.8601 9.88797 25.5667 12.0778L25.5056 12.5341L25.4769 12.7483L25.3013 12.8741L24.9292 13.1408L24.9292 13.1408C21.903 15.3092 20.1881 19.2862 19.2328 22.8826C18.2959 26.4095 18.1183 29.4581 18.1019 29.7847V33.4618V33.9618H17.6019H15.4987H14.9986L14.9987 33.4617L14.9992 29.7065L14.9992 29.6967L14.9996 29.687C15.0056 29.533 15.1454 26.2486 16.1735 22.2882C16.7826 19.9416 17.5822 17.8342 18.5542 16.0279L39.0304 12.8028ZM39.0304 12.8028C38.7581 11.9939 38.241 11.2907 37.5509 10.7927C36.861 10.2948 36.0332 10.0272 35.1839 10.0283C35.1836 10.0283 35.1834 10.0283 35.1832 10.0283L32.8271 10.0283M39.0304 12.8028L32.8271 10.0283M32.8271 10.0283V2V1.42278L32.2558 1.50511L31.0552 1.67812C28.1845 2.09178 25.9341 3.56938 24.397 6.04732C23.3456 7.74183 22.8381 9.59102 22.5919 11.005C21.025 12.2604 19.6714 13.9515 18.5542 16.0278L32.8271 10.0283Z" fill="black" stroke="black"/>
<path d="M60.8298 52.3471L48.9816 50.5057L41.7612 38.6071C41.3822 37.9843 40.8502 37.4707 40.2168 37.1161C39.5834 36.7614 38.8699 36.5777 38.1455 36.5826L7.88478 36.8258C7.01165 36.8333 6.16251 37.1149 5.45533 37.6315C4.74816 38.1481 4.21808 38.8742 3.93875 39.7087L0.5 49.9948V73.6443H7.71953C8.28077 75.4846 9.41211 77.0949 10.9475 78.2389C12.4828 79.3828 14.3413 80.0001 16.25 80.0001C18.1587 80.0001 20.0172 79.3828 21.5525 78.2389C23.0879 77.0949 24.2192 75.4846 24.7805 73.6443H38.1695C38.7308 75.4846 39.8621 77.0949 41.3974 78.2389C42.9328 79.3828 44.7912 80.0001 46.7 80.0001C48.6087 80.0001 50.4672 79.3828 52.0025 78.2389C53.5379 77.0949 54.6692 75.4846 55.2304 73.6443H63.5V55.4875C63.5034 54.7277 63.2354 53.9921 62.745 53.4154C62.2547 52.8386 61.5748 52.4594 60.8298 52.3471ZM27.8 40.9024L38.179 40.8189L43.9671 50.3578L27.8 50.3521V40.9024ZM7.91838 41.0623L23.6 40.9362V50.3506L4.81563 50.3439L7.91838 41.0623ZM16.25 75.7627C15.3155 75.7627 14.4019 75.4831 13.6249 74.9594C12.8479 74.4357 12.2423 73.6913 11.8847 72.8203C11.527 71.9494 11.4335 70.9911 11.6158 70.0665C11.7981 69.1419 12.2481 68.2926 12.9089 67.626C13.5697 66.9595 14.4116 66.5055 15.3282 66.3216C16.2448 66.1377 17.1948 66.2321 18.0582 66.5928C18.9216 66.9536 19.6595 67.5645 20.1787 68.3483C20.6979 69.1321 20.975 70.0537 20.975 70.9963C20.9736 72.26 20.4753 73.4715 19.5895 74.3651C18.7037 75.2586 17.5027 75.7613 16.25 75.7627ZM46.7 75.7627C45.7655 75.7627 44.8519 75.4831 44.0749 74.9594C43.2979 74.4357 42.6923 73.6913 42.3346 72.8203C41.977 71.9494 41.8835 70.9911 42.0658 70.0665C42.2481 69.1419 42.6981 68.2926 43.3589 67.626C44.0197 66.9595 44.8616 66.5055 45.7782 66.3216C46.6947 66.1377 47.6448 66.2321 48.5082 66.5928C49.3715 66.9536 50.1095 67.5645 50.6287 68.3483C51.1479 69.1321 51.425 70.0537 51.425 70.9963C51.4236 72.26 50.9253 73.4715 50.0395 74.3651C49.1537 75.2586 47.9527 75.7613 46.7 75.7627ZM59.3 69.4076H55.483C55.114 67.3286 54.032 65.4467 52.4264 64.0913C50.8207 62.7358 48.7937 61.9931 46.7 61.9931C44.6063 61.9931 42.5792 62.7358 40.9736 64.0913C39.368 65.4467 38.286 67.3286 37.917 69.4076H25.033C24.664 67.3286 23.582 65.4467 21.9764 64.0913C20.3707 62.7358 18.3437 61.9931 16.25 61.9931C14.1563 61.9931 12.1292 62.7358 10.5236 64.0913C8.91796 65.4467 7.83599 67.3286 7.46701 69.4076H4.7V54.5825L48.0815 54.6525L59.3 56.3961V69.4076Z" fill="black"/>
</svg>
